<?xml version="1.0" encoding="utf-8"?>
<!-- Generator: Adobe Illustrator 15.0.0, SVG Export Plug-In . SVG Version: 6.00 Build 0)  -->
<!DOCTYPE svg PUBLIC "-//W3C//DTD SVG 1.1//EN" "http://www.w3.org/Graphics/SVG/1.1/DTD/svg11.dtd">
<svg version="1.1" id="Capa_1" xmlns="http://www.w3.org/2000/svg" xmlns:xlink="http://www.w3.org/1999/xlink" x="0px" y="0px"
	 width="600px" height="600px" viewBox="0 0 600 600" enable-background="new 0 0 600 600" xml:space="preserve">
<g>
	<path fill="#C2C63D" d="M300,50c138.067,0,250,111.93,250,250c0,138.072-111.933,250-250,250C161.93,550,50,438.072,50,300
		C50,161.93,161.93,50,300,50z"/>
	<g>
		<path fill="#98D5D0" enable-background="new    " d="M405.452,281.733c25.467-25.467,25.469-66.761,0-92.228l-11.835,11.838
			c2.947,0.302,5.814,1.577,8.072,3.837c5.21,5.207,5.212,13.659,0.003,18.868c-5.21,5.209-13.664,5.207-18.871,0
			c-2.257-2.26-3.534-5.128-3.837-8.078l-65.761,65.76C338.693,307.2,379.983,307.204,405.452,281.733z"/>
		<path fill="#66AD9E" d="M416.914,178.043l-11.462,11.462c25.469,25.467,25.467,66.761,0,92.228
			c-25.469,25.471-66.759,25.467-92.229-0.002l-4.019,4.022l-7.441,7.439l-18.643,18.644l2.228,2.225
			c1.312,1.312,2.318,2.812,3.054,4.403l19.624-19.621c31.977,26.017,79.102,24.132,108.886-5.653
			C448.707,261.395,448.707,209.839,416.914,178.043z"/>
		<path fill="#40424F" d="M288.403,318.464c-0.736-1.593-1.742-3.091-3.054-4.403l-2.228-2.225l-7.379,7.381L165.953,429.003
			l2.229,2.229c5.976,5.979,15.672,5.979,21.651,0l95.517-95.516C290.018,331.05,291.023,324.124,288.403,318.464z"/>
		<path fill="#8ECBC6" enable-background="new    " d="M382.824,205.18c2.947-2.95,6.938-4.229,10.793-3.837l11.835-11.838v-0.002
			c-25.469-25.469-66.761-25.469-92.229,0c-25.469,25.469-25.469,66.759,0,92.228l65.761-65.76
			C378.595,212.12,379.872,208.13,382.824,205.18z M340.638,220.602c-6.996-6.995-6.998-18.338-0.005-25.339
			c7.002-6.995,18.349-6.995,25.344,0c7,7,7.002,18.348,0.008,25.344C358.983,227.606,347.635,227.602,340.638,220.602z"/>
		<path fill="#5CA394" d="M416.914,178.043c-31.793-31.795-83.354-31.795-115.149,0.002c-29.784,29.782-31.667,76.901-5.652,108.883
			l-19.621,19.621c1.593,0.738,3.091,1.746,4.403,3.059l2.228,2.229l18.643-18.644l7.441-7.439l4.019-4.022
			c-25.469-25.469-25.469-66.759,0-92.228c25.468-25.469,66.76-25.469,92.229,0v0.002L416.914,178.043z"/>
		<path fill="#363845" d="M280.895,309.607c-1.312-1.312-2.81-2.319-4.403-3.059c-5.662-2.615-12.583-1.609-17.247,3.057
			l-95.517,95.518c-5.983,5.98-5.983,15.672,0,21.652l2.225,2.228l109.791-109.786l7.379-7.381L280.895,309.607z"/>
		<path fill="#F0F0CB" d="M365.977,195.263c-6.995-6.995-18.342-6.995-25.344,0c-6.993,7-6.991,18.344,0.005,25.339
			c6.997,7,18.347,7.005,25.347,0.005C372.979,213.611,372.977,202.263,365.977,195.263z"/>
		<path fill="#F0F0CB" d="M401.689,205.18c-2.258-2.26-5.125-3.535-8.072-3.837c-3.855-0.393-7.846,0.887-10.793,3.837
			c-2.952,2.95-4.229,6.94-3.84,10.791c0.303,2.95,1.58,5.818,3.837,8.078c5.207,5.207,13.661,5.209,18.871,0
			C406.901,218.839,406.899,210.387,401.689,205.18z"/>
	</g>
</g>
</svg>
